<?xml version="1.0" encoding="UTF-8"?>
<svg version="1.1" xmlns="http://www.w3.org/2000/svg" width="500" height="500">
<path d="M0 0 C48.84 0 97.68 0 148 0 C148 48.84 148 97.68 148 148 C139.05555556 140.33333333 139.05555556 140.33333333 136 137 C136 136.34 136 135.68 136 135 C135.34 135 134.68 135 134 135 C132.2727457 133.37221192 130.63758783 131.71474377 129 130 C127.864926 128.85952702 126.72695916 127.7219285 125.58666992 126.58666992 C116.39111328 117.39111328 107.19555664 108.19555664 98 99 C95.23220136 100.34291246 93.01942088 101.67786656 90.71484375 103.72265625 C89.80351685 104.52376831 89.80351685 104.52376831 88.8737793 105.34106445 C88.23480713 105.90913818 87.59583496 106.47721191 86.9375 107.0625 C85.5895467 108.24593739 84.24058187 109.42822361 82.890625 110.609375 C81.89772461 111.47852539 81.89772461 111.47852539 80.88476562 112.36523438 C75.10860771 117.37522834 69.11050339 122.11926296 63.125 126.875 C58.63671887 130.45282157 54.25573362 134.14564481 49.88500977 137.86499023 C46.4756954 140.76278256 43.03665599 143.61730278 39.5625 146.4375 C35.37176104 149.84475298 31.27080856 153.34101042 27.1875 156.875 C21.99517579 161.36279875 16.68115346 165.64708029 11.25732422 169.85058594 C6.39296924 173.64138118 1.70856681 177.6163843 -2.95214844 181.65356445 C-6.5034542 184.72765724 -10.09726119 187.73345666 -13.75 190.6875 C-17.25159187 193.52455619 -20.62192055 196.44798012 -23.9375 199.5 C-28.32601153 203.50149319 -32.96672063 207.00290422 -37.75 210.515625 C-43.75650448 215.02050336 -49.35073699 220.06107332 -55 225 C-58.93815018 223.41547369 -61.54354105 220.68495679 -64.4375 217.6875 C-65.13456055 216.9769043 -65.13456055 216.9769043 -65.84570312 216.25195312 C-67.23322758 214.83733614 -68.61663507 213.41868488 -70 212 C-72.34434087 209.64351229 -74.69941438 207.29816241 -77.05932617 204.95727539 C-79.49991132 202.53604985 -81.93748131 200.11181232 -84.375 197.6875 C-85.6125 196.46256836 -85.6125 196.46256836 -86.875 195.21289062 C-87.68710937 194.40400391 -88.49921875 193.59511719 -89.3359375 192.76171875 C-90.06345215 192.03944092 -90.7909668 191.31716309 -91.54052734 190.57299805 C-93.51104384 188.5115256 -95.3771163 186.42158416 -97.23583984 184.26196289 C-101.24854608 179.64460828 -105.54380436 175.34778362 -109.890625 171.046875 C-110.71705505 170.22423157 -111.54348511 169.40158813 -112.3949585 168.55401611 C-115.01087629 165.95022021 -117.63002348 163.34971151 -120.25 160.75 C-123.71642252 157.31017407 -127.17951871 153.86704906 -130.640625 150.421875 C-131.43438538 149.63641296 -132.22814575 148.85095093 -133.04595947 148.04168701 C-133.78392761 147.30702209 -134.52189575 146.57235718 -135.28222656 145.81542969 C-135.92951721 145.17337585 -136.57680786 144.53132202 -137.24371338 143.86981201 C-138.99309713 142.00734907 -140.50856489 140.07252677 -142 138 C-144.66148909 139.27242652 -147.07233827 140.65600662 -149.4765625 142.36328125 C-150.137771 142.83121094 -150.79897949 143.29914063 -151.48022461 143.78125 C-152.18800049 144.2865625 -152.89577637 144.791875 -153.625 145.3125 C-154.37209229 145.84230469 -155.11918457 146.37210938 -155.88891602 146.91796875 C-159.77153091 149.67721212 -163.63782918 152.45777814 -167.48828125 155.26171875 C-175.65480044 161.2078562 -183.88937762 166.98691742 -192.32006836 172.55297852 C-204.36787571 180.52330819 -216.04758454 189.01755801 -227.74853516 197.48486328 C-234.93569843 202.68391992 -242.16274731 207.79427623 -249.5625 212.6875 C-260.66284632 220.05937751 -271.46010766 227.87132626 -282.25 235.6875 C-303.06644436 250.75647024 -303.06644436 250.75647024 -311 255 C-317.21682043 247.85145971 -322.61124749 240.32953801 -327.90332031 232.48754883 C-332.30907606 225.9692601 -336.86302011 219.57402196 -341.51074219 213.22631836 C-343.01935785 211.15937891 -344.5111491 209.08121015 -346 207 C-346.57637207 206.21399414 -347.15274414 205.42798828 -347.74658203 204.61816406 C-348.30587402 203.82893555 -348.86516602 203.03970703 -349.44140625 202.2265625 C-349.95517822 201.51322754 -350.4689502 200.79989258 -350.99829102 200.06494141 C-352 198 -352 198 -351.84741211 195.89794922 C-350.31716324 192.47065025 -346.97623172 190.62662564 -344 188.5 C-342.92890991 187.71713623 -342.92890991 187.71713623 -341.83618164 186.91845703 C-339.56633397 185.26626341 -337.28476471 183.63148836 -335 182 C-333.92081299 181.22414551 -333.92081299 181.22414551 -332.81982422 180.43261719 C-325.49179784 175.16983802 -318.09548994 170.02747093 -310.5625 165.0625 C-304.26651412 160.91253108 -298.15087126 156.5430894 -292.05419922 152.10668945 C-283.12251748 145.61446023 -274.06534403 139.30363676 -265 133 C-264.37754395 132.56703613 -263.75508789 132.13407227 -263.11376953 131.68798828 C-258.1837657 128.26143073 -253.24541078 124.84747059 -248.28515625 121.46484375 C-237.25309915 113.93226161 -226.4191267 106.14317171 -215.62841797 98.26953125 C-207.76722171 92.53354874 -199.94842342 86.84915429 -191.67578125 81.71484375 C-185.95568802 78.04897378 -180.4988631 73.98681172 -175 70 C-172.06307729 67.87420145 -169.12537632 65.7494804 -166.1875 63.625 C-165.43766846 63.08230469 -164.68783691 62.53960937 -163.9152832 61.98046875 C-157.80332975 57.56341579 -151.65260026 53.20317256 -145.48120117 48.86962891 C-144.81967041 48.40476074 -144.15813965 47.93989258 -143.4765625 47.4609375 C-142.86329102 47.03393555 -142.25001953 46.60693359 -141.61816406 46.16699219 C-139.85748533 44.93048074 -139.85748533 44.93048074 -137.7734375 43.1015625 C-136 42 -136 42 -134.11694336 42.22387695 C-131.54881018 43.16541719 -130.27157279 44.3706941 -128.35546875 46.31640625 C-127.33936523 47.34024414 -127.33936523 47.34024414 -126.30273438 48.38476562 C-125.25569336 49.46274414 -125.25569336 49.46274414 -124.1875 50.5625 C-123.15786133 51.59987305 -123.15786133 51.59987305 -122.10742188 52.65820312 C-118.90363145 55.9104899 -115.81120157 59.21173252 -112.83520508 62.67358398 C-108.63682283 67.49186207 -104.13333726 71.97407677 -99.59375 76.46875 C-98.71021851 77.34849487 -97.82668701 78.22823975 -96.91638184 79.13464355 C-94.11334867 81.92554506 -91.30720084 84.71329232 -88.5 87.5 C-84.7989945 91.17398738 -81.10168178 94.85165602 -77.40625 98.53125 C-76.56751343 99.36168823 -75.72877686 100.19212646 -74.86462402 101.04772949 C-70.55791235 105.33660799 -66.40803302 109.69220894 -62.45957947 114.31433105 C-60.4341239 116.65353054 -58.26658318 118.8298258 -56.0625 121 C-54.90427734 122.1446875 -54.90427734 122.1446875 -53.72265625 123.3125 C-53.15417969 123.869375 -52.58570313 124.42625 -52 125 C-47.89772962 122.71423311 -44.40766857 119.94011731 -40.875 116.875 C-39.71549993 115.88074467 -38.55533386 114.88726554 -37.39453125 113.89453125 C-36.82041504 113.40291504 -36.24629883 112.91129883 -35.65478516 112.40478516 C-33.31913624 110.42199911 -30.94275155 108.49138533 -28.5625 106.5625 C-24.29253585 103.08926385 -20.10532672 99.53166989 -15.9375 95.9375 C-9.30984695 90.23018108 -2.53823772 84.7413433 4.375 79.3828125 C10.64348215 74.51224529 16.71832309 69.56504774 22.56640625 64.1875 C26.06279488 61.04467876 29.71757846 58.10945641 33.37109375 55.15234375 C36.99186268 52.18794006 40.5010298 49.10613101 44 46 C38.45154594 39.21855615 32.22627704 33.14760567 26 27 C14.13821649 15.28809462 14.13821649 15.28809462 10.5234375 10.9921875 C8.34967884 8.41463467 6.20875926 6.27318299 3.625 4.125 C2.40054728 3.10232975 1.18671185 2.06623349 0 1 C0 0.67 0 0.34 0 0 Z " fill="#38B249" transform="translate(352,0)"/>
<path d="M0 0 C7.55215896 6.16524885 14.25801302 13.19411569 21.09985352 20.12036133 C22.72978043 21.76859391 24.36194398 23.4145481 25.99609375 25.05859375 C26.52641205 25.5921347 27.05673035 26.12567566 27.6031189 26.67538452 C30.30472605 29.37360176 33.04431313 31.96078721 35.97265625 34.41015625 C36.82102664 35.18197267 36.82102664 35.18197267 37.68653584 35.96938133 C40.08257145 38.13065509 40.08257145 38.13065509 43.18516064 40.34707069 C49.34582073 45.36328677 53.11723497 50.25176415 54.18340492 58.27782822 C54.71916907 65.54556646 54.64394814 72.80724149 54.50885308 80.08687449 C54.45225023 83.91759471 54.47174272 87.74806503 54.48158264 91.5790863 C54.48837085 98.2022716 54.44789086 104.82378093 54.37449074 111.44654465 C54.26844194 121.021419 54.23494245 130.59549021 54.21864685 140.17088814 C54.19025585 155.70911039 54.10391074 171.24644103 53.98071289 186.78417969 C53.86122531 201.86974657 53.76928524 216.95507052 53.71411133 232.04101562 C53.71069592 232.97226711 53.70728052 233.9035186 53.70376161 234.86298983 C53.68679505 239.53521373 53.6703671 244.20743934 53.65420687 248.87966609 C53.51962988 287.58723622 53.28008087 326.29315558 53 365 C12.41 365 -28.18 365 -70 365 C-71.15613465 301.41259436 -71.15613465 301.41259436 -71.19628906 280.76611328 C-71.20422023 278.28987561 -71.21237214 275.81363865 -71.22071838 273.33740234 C-71.28796381 251.35137369 -71.28466227 229.36502847 -71.26091385 207.37892342 C-71.25793536 204.47901548 -71.25511222 201.57910745 -71.25244141 198.67919922 C-71.2517707 197.95902767 -71.2511 197.23885613 -71.25040898 196.4968612 C-71.24062621 184.69836846 -71.27322227 172.9003438 -71.32101086 161.10195936 C-71.36972567 148.86990306 -71.37694003 136.6383469 -71.34467673 124.40623271 C-71.32779647 117.58369648 -71.32925007 110.7622602 -71.37879181 103.93985367 C-71.42310812 97.56750695 -71.41588139 91.19730459 -71.36887932 84.82499695 C-71.36069845 82.49373578 -71.37125475 80.16232078 -71.40209389 77.83124924 C-71.63062875 59.31285077 -71.63062875 59.31285077 -67.59888458 54.69005966 C-64.83074675 52.3982595 -62.15226877 50.7043326 -59 49 C-57.65789786 47.90128583 -56.33865429 46.77264606 -55.06640625 45.59375 C-54.48697266 45.08263672 -53.90753906 44.57152344 -53.31054688 44.04492188 C-52.73369141 43.53509766 -52.15683594 43.02527344 -51.5625 42.5 C-47.16214592 38.6446644 -42.72443561 34.95907533 -38 31.5 C-31.29347583 26.58488296 -25.11955289 21.11950662 -18.87695312 15.63867188 C-15.87980274 13.02201301 -12.84943396 10.44528208 -9.8125 7.875 C-9.28406494 7.42592285 -8.75562988 6.9768457 -8.21118164 6.51416016 C-5.53593494 4.25185934 -2.82958885 2.06647778 0 0 Z " fill="#39B34A" transform="translate(447,135)"/>
<path d="M0 0 C8.14090883 -2.59937791 17.04768603 -3.72166153 25 0 C39.14346364 9.52708326 50.67289211 24.1378283 61.71064758 36.9921875 C66.18354996 42.18143394 70.91781364 47.04790832 75.77734375 51.875 C76.58869278 52.68493408 77.40004181 53.49486816 78.23597717 54.3293457 C80.80079139 56.88861015 83.36907948 59.4443553 85.9375 62 C87.68838283 63.74586133 89.43903613 65.49195287 91.18945312 67.23828125 C95.45698616 71.49485198 99.72736866 75.74854716 104 80 C109.42064334 78.00321834 112.52717121 74.83363469 116.59765625 70.80078125 C117.39042969 70.20652344 118.18320312 69.61226563 119 69 C121.15014648 69.38745117 121.15014648 69.38745117 123 70 C123.08856777 121.17218663 122.85883937 172.34078099 122.55461788 223.5119729 C122.48080824 235.94332942 122.41021403 248.37470428 122.33936501 260.80607796 C122.22873313 280.20406708 122.11405778 299.60203002 122 319 C81.41 319 40.82 319 -1 319 C-1.02202838 278.65011654 -1.04049909 238.30023873 -1.05106533 197.95035098 C-1.0523161 193.1911845 -1.05361041 188.43201803 -1.05493164 183.67285156 C-1.05519395 182.7253513 -1.05545626 181.77785104 -1.05572652 180.80163865 C-1.06008277 165.4417542 -1.06797008 150.08187349 -1.0771528 134.72199126 C-1.08649057 118.971869 -1.09205587 103.22174869 -1.09408849 87.47162378 C-1.09546346 77.74593732 -1.09981265 68.0202614 -1.10791647 58.29457818 C-1.11318545 51.63344392 -1.11480394 44.97231513 -1.11350138 38.31117894 C-1.11285824 34.46291757 -1.11387282 30.61467467 -1.11920547 26.76641655 C-1.12493354 22.60261709 -1.12299921 18.4388574 -1.12025452 14.27505493 C-1.12316736 13.04745 -1.1260802 11.81984508 -1.12908131 10.55504 C-1.12709026 9.44682151 -1.12509921 8.33860301 -1.12304783 7.19680214 C-1.12342755 6.23459082 -1.12380727 5.27237951 -1.1241985 4.28101027 C-1 2 -1 2 0 0 Z " fill="#298337" transform="translate(189,181)"/>
<path d="M0 0 C40.59 0 81.18 0 123 0 C123 71.28 123 142.56 123 216 C82.41 216 41.82 216 0 216 C0 144.72 0 73.44 0 0 Z " fill="#034E42" transform="translate(0,284)"/>
<path d="M0 0 C0.33 0 0.66 0 1 0 C2.36589331 45.4520998 1.94215461 90.89511264 1.62664449 136.35954714 C1.55358662 146.92631776 1.48834557 157.49313294 1.42356598 168.05995703 C1.2906961 189.70669536 1.14862224 211.35336444 1 233 C0.34 233 -0.32 233 -1 233 C-1.02338498 204.54008342 -1.04100667 176.08016829 -1.05181217 147.62024403 C-1.05696324 134.40511058 -1.06398325 121.18998312 -1.07543945 107.97485352 C-1.08542265 96.45336916 -1.09186208 84.93188913 -1.09408849 73.41040057 C-1.09538942 67.31279285 -1.09843614 61.21519751 -1.10573006 55.11759377 C-1.11254767 49.37129706 -1.11460532 43.62501778 -1.11310768 37.87871742 C-1.11338144 35.77656459 -1.11535235 33.67441113 -1.11920547 31.57226181 C-1.13762811 20.99738359 -1.08628435 10.53044743 0 0 Z " fill="#2C783C" transform="translate(310,267)"/>
<path d="M0 0 C0 0.66 0 1.32 0 2 C-0.66 2 -1.32 2 -2 2 C-2 2.66 -2 3.32 -2 4 C-3.6796875 5.65625 -3.6796875 5.65625 -5.875 7.5 C-7.99035504 9.28933258 -10.04019124 11.04019124 -12 13 C-12.99 13 -13.98 13 -15 13 C-15.33 14.32 -15.66 15.64 -16 17 C-16.66 17 -17.32 17 -18 17 C-18.433125 17.474375 -18.86625 17.94875 -19.3125 18.4375 C-21.44693733 20.41383086 -23.16307947 20.61663236 -26 21 C-23.03772351 16.95660071 -19.6941535 14.01099937 -15.6875 11.0625 C-11.95912571 8.26817499 -8.29913986 5.47178351 -4.8125 2.375 C-2 0 -2 0 0 0 Z " fill="#56B266" transform="translate(366,73)"/>
<path d="M0 0 C4.10393012 -0.11591764 8.20744106 -0.18715601 12.3125 -0.25 C13.47974609 -0.28351563 14.64699219 -0.31703125 15.84960938 -0.3515625 C17.52700195 -0.37089844 17.52700195 -0.37089844 19.23828125 -0.390625 C20.26993408 -0.41157227 21.30158691 -0.43251953 22.36450195 -0.45410156 C25 0 25 0 26.86010742 2.02441406 C27.23627197 2.67635742 27.61243652 3.32830078 28 4 C27.45182617 3.83701416 26.90365234 3.67402832 26.33886719 3.50610352 C23.68558577 2.93196444 21.29257322 2.88726348 18.578125 2.90234375 C17.55332031 2.90556641 16.52851563 2.90878906 15.47265625 2.91210938 C13.87744141 2.92467773 13.87744141 2.92467773 12.25 2.9375 C11.17105469 2.94201172 10.09210938 2.94652344 8.98046875 2.95117188 C6.32025617 2.96294273 3.66015635 2.97938601 1 3 C0.67 2.01 0.34 1.02 0 0 Z " fill="#6FA37A" transform="translate(189,181)"/>
<path d="M0 0 C-2.46554871 6.05180138 -7.54119522 9.72471713 -13 13 C-13.66 13 -14.32 13 -15 13 C-15.33 13.99 -15.66 14.98 -16 16 C-17.32 15.67 -18.64 15.34 -20 15 C-19.28714844 14.41992188 -18.57429688 13.83984375 -17.83984375 13.2421875 C-11.31725313 7.9243721 -11.31725313 7.9243721 -4.9375 2.4375 C-2 0 -2 0 0 0 Z " fill="#5AB667" transform="translate(332,101)"/>
<path d="M0 0 C0.33 1.32 0.66 2.64 1 4 C0.34 4 -0.32 4 -1 4 C-1.33 4.99 -1.66 5.98 -2 7 C-3.8125 7.87890625 -3.8125 7.87890625 -6 8.5625 C-8.14541038 9.20681284 -8.14541038 9.20681284 -10 10 C-10.33 10.66 -10.66 11.32 -11 12 C-12.32 11.67 -13.64 11.34 -15 11 C-12.87657342 9.35210134 -10.7513551 7.70661212 -8.625 6.0625 C-8.02171875 5.59392578 -7.4184375 5.12535156 -6.796875 4.64257812 C-2.2265625 1.11328125 -2.2265625 1.11328125 0 0 Z " fill="#60B66F" transform="translate(30,173)"/>
<path d="M0 0 C0.33 0.99 0.66 1.98 1 3 C-1.76780435 5.85167721 -4.59671945 8.60380787 -7.5625 11.25 C-8.39974609 12.00023437 -8.39974609 12.00023437 -9.25390625 12.765625 C-11.16398128 14.11592413 -12.71532318 14.5800594 -15 15 C-13.40526038 10.53472907 -9.93096666 8.14492157 -6.375 5.25 C-5.76398438 4.74339844 -5.15296875 4.23679688 -4.5234375 3.71484375 C-3.02070947 2.4703971 -1.51102533 1.23435872 0 0 Z " fill="#48AD59" transform="translate(429,150)"/>
<path d="M0 0 C0.66 1.32 1.32 2.64 2 4 C0.68 4 -0.64 4 -2 4 C-4.41847197 6.50484597 -5 7.46013806 -5 11 C-5.66 11 -6.32 11 -7 11 C-7.33 11.99 -7.66 12.98 -8 14 C-8 12.68 -8 11.36 -8 10 C-8.66 9.67 -9.32 9.34 -10 9 C-8.77946141 5.33838422 -7.63217696 4.83729526 -4.4375 2.8125 C-3.61121094 2.28269531 -2.78492188 1.75289063 -1.93359375 1.20703125 C-1.29550781 0.80871094 -0.65742188 0.41039063 0 0 Z " fill="#45B155" transform="translate(140,96)"/>
<path d="M0 0 C1.32 0 2.64 0 4 0 C4.71614583 1.72526042 5.43229167 3.45052083 6.1484375 5.17578125 C7.06806692 7.26533932 7.06806692 7.26533932 9 10 C12.465 9.505 12.465 9.505 16 9 C14.35 10.65 12.7 12.3 11 14 C6.80312307 10.04999819 3.24385836 5.77103566 0 1 C0 0.67 0 0.34 0 0 Z " fill="#4F9F61" transform="translate(31,241)"/>
<path d="M0 0 C0 0.99 0 1.98 0 3 C-1.828125 4.71875 -1.828125 4.71875 -4.25 6.5 C-5.43335937 7.38171875 -5.43335937 7.38171875 -6.640625 8.28125 C-7.41921875 8.8484375 -8.1978125 9.415625 -9 10 C-10.01320313 10.88171875 -10.01320313 10.88171875 -11.046875 11.78125 C-13 13 -13 13 -15.25 12.6875 C-15.8275 12.460625 -16.405 12.23375 -17 12 C-16.35933594 11.55269531 -15.71867187 11.10539063 -15.05859375 10.64453125 C-10.01979528 7.12262889 -4.99518082 3.58349928 0 0 Z " fill="#64BA76" transform="translate(107,119)"/>
<path d="M0 0 C0.92039062 0.28810547 0.92039062 0.28810547 1.859375 0.58203125 C-0.24021493 2.40007845 -2.34491227 4.21153159 -4.453125 6.01953125 C-5.34547852 6.79393555 -5.34547852 6.79393555 -6.25585938 7.58398438 C-7.12114258 8.32358398 -7.12114258 8.32358398 -8.00390625 9.078125 C-8.53282471 9.53372803 -9.06174316 9.98933105 -9.60668945 10.45874023 C-11.140625 11.58203125 -11.140625 11.58203125 -14.140625 12.58203125 C-14.140625 11.59203125 -14.140625 10.60203125 -14.140625 9.58203125 C-13.150625 9.58203125 -12.160625 9.58203125 -11.140625 9.58203125 C-11.140625 8.92203125 -11.140625 8.26203125 -11.140625 7.58203125 C-10.480625 7.58203125 -9.820625 7.58203125 -9.140625 7.58203125 C-8.810625 6.59203125 -8.480625 5.60203125 -8.140625 4.58203125 C-7.480625 4.58203125 -6.820625 4.58203125 -6.140625 4.58203125 C-6.140625 3.92203125 -6.140625 3.26203125 -6.140625 2.58203125 C-2.87983363 -0.56230328 -2.87983363 -0.56230328 0 0 Z " fill="#51AB5D" transform="translate(402.140625,135.41796875)"/>
<path d="M0 0 C-0.33 0.99 -0.66 1.98 -1 3 C-1.66 3 -2.32 3 -3 3 C-3 3.66 -3 4.32 -3 5 C-3.66 5.66 -4.32 6.32 -5 7 C-4.34 7.66 -3.68 8.32 -3 9 C-7.75 10.125 -7.75 10.125 -10 9 C-10.99 8.67 -11.98 8.34 -13 8 C-11.2126038 6.66094733 -9.41995047 5.32890934 -7.625 4 C-6.62726563 3.2575 -5.62953125 2.515 -4.6015625 1.75 C-2 0 -2 0 0 0 Z " fill="#59B768" transform="translate(90,132)"/>
<path d="M0 0 C0 0.99 0 1.98 0 3 C-1.64351457 4.36176922 -3.31522656 5.68962066 -5 7 C-6.2065625 8.546875 -6.2065625 8.546875 -7.4375 10.125 C-10.21922741 13.24596246 -11.98911383 14.06723577 -16 15 C-13.12999596 11.15514898 -10.0624814 8.23396384 -6.3125 5.25 C-5.33925781 4.47140625 -4.36601562 3.6928125 -3.36328125 2.890625 C-2.58339844 2.26671875 -1.80351562 1.6428125 -1 1 C-0.67 0.67 -0.34 0.34 0 0 Z " fill="#56B068" transform="translate(382,58)"/>
<path d="M0 0 C1.32 0.33 2.64 0.66 4 1 C1.90603799 2.86694188 -0.19870197 4.71826176 -2.3125 6.5625 C-2.90740234 7.09552734 -3.50230469 7.62855469 -4.11523438 8.17773438 C-5.67819037 9.53113202 -7.33487746 10.7744864 -9 12 C-9.99 11.67 -10.98 11.34 -12 11 C-9.47211993 8.20127563 -7.79588866 6.54226981 -4 6 C-4 5.34 -4 4.68 -4 4 C-3.34 4 -2.68 4 -2 4 C-1.34 2.68 -0.68 1.36 0 0 Z " fill="#54AD64" transform="translate(306,213)"/>
<path d="M0 0 C2.4375 0.75 2.4375 0.75 5 2 C5.8125 4.125 5.8125 4.125 6 6 C6.66 6 7.32 6 8 6 C8.33 8.31 8.66 10.62 9 13 C0 2 0 2 0 0 Z " fill="#52AC61" transform="translate(15,218)"/>
<path d="M0 0 C2.31 0.66 4.62 1.32 7 2 C7 3.32 7 4.64 7 6 C7.66 6.33 8.32 6.66 9 7 C8.34 8.32 7.68 9.64 7 11 C5.83051998 9.35616456 4.6644855 7.70987731 3.5 6.0625 C2.8503125 5.14597656 2.200625 4.22945312 1.53125 3.28515625 C0 1 0 1 0 0 Z " fill="#52B463" transform="translate(7,207)"/>
<path d="M0 0 C4.13621084 3.3810038 7.81316569 6.66590534 11 11 C9.125 10.75 9.125 10.75 7 10 C5.75 7.9375 5.75 7.9375 5 6 C3.02 6 1.04 6 -1 6 C-0.67 4.02 -0.34 2.04 0 0 Z " fill="#49AF59" transform="translate(287,113)"/>
<path d="M0 0 C0.66 0.33 1.32 0.66 2 1 C1.875 2.8125 1.875 2.8125 1 5 C-2.20883825 6.95320589 -4.2205439 8 -8 8 C-6.88333826 4.65001479 -6.25305075 4.20659778 -3.4375 2.3125 C-2.79683594 1.87550781 -2.15617188 1.43851563 -1.49609375 0.98828125 C-1.00238281 0.66214844 -0.50867188 0.33601562 0 0 Z " fill="#4DB05E" transform="translate(13,185)"/>
<path d="M0 0 C0.33 0.66 0.66 1.32 1 2 C0.67 2.99 0.34 3.98 0 5 C-1.175625 5.12375 -1.175625 5.12375 -2.375 5.25 C-5.14749104 5.72806339 -5.14749104 5.72806339 -6.3125 8.0625 C-6.539375 8.701875 -6.76625 9.34125 -7 10 C-8.32 9.67 -9.64 9.34 -11 9 C-7.37 6.03 -3.74 3.06 0 0 Z " fill="#64B871" transform="translate(406,169)"/>
<path d="M0 0 C2.125 0.375 2.125 0.375 4 1 C3.67 1.99 3.34 2.98 3 4 C1.67696283 4.3721042 0.34262065 4.70630173 -1 5 C-1.33 5.66 -1.66 6.32 -2 7 C-3.65 7 -5.3 7 -7 7 C-4.66666667 4.66666667 -2.33333333 2.33333333 0 0 Z " fill="#53965F" transform="translate(308,250)"/>
<path d="M0 0 C-3.3 2.31 -6.6 4.62 -10 7 C-10.33 6.34 -10.66 5.68 -11 5 C-8.86368159 0.39004975 -8.86368159 0.39004975 -6.0625 -0.875 C-4 -1 -4 -1 0 0 Z " fill="#5CB369" transform="translate(115,204)"/>
<path d="M0 0 C1.65 1.65 3.3 3.3 5 5 C2.36 5 -0.28 5 -3 5 C-3 5.66 -3 6.32 -3 7 C-4.32 6.67 -5.64 6.34 -7 6 C-4.69 4.02 -2.38 2.04 0 0 Z " fill="#58B167" transform="translate(447,135)"/>
<path d="M0 0 C0 3.77910478 -0.99703962 4.46106101 -3.5 7.1875 C-4.1496875 7.90292969 -4.799375 8.61835937 -5.46875 9.35546875 C-5.9740625 9.89816406 -6.479375 10.44085938 -7 11 C-7.99 10.67 -8.98 10.34 -10 10 C-10 9.34 -10 8.68 -10 8 C-8.38542921 6.56418526 -6.70780925 5.19855217 -5 3.875 C-4.071875 3.15054688 -3.14375 2.42609375 -2.1875 1.6796875 C-1.465625 1.12539062 -0.74375 0.57109375 0 0 Z " fill="#4EB262" transform="translate(311,117)"/>
<path d="M0 0 C0 2 0 2 -1.18359375 3.453125 C-3.34140872 5.29074807 -5.52918176 6.4814754 -8.0625 7.75 C-8.94035156 8.19859375 -9.81820312 8.6471875 -10.72265625 9.109375 C-11.47417969 9.40328125 -12.22570312 9.6971875 -13 10 C-13.66 9.67 -14.32 9.34 -15 9 C-14.39671875 8.60167969 -13.7934375 8.20335938 -13.171875 7.79296875 C-12.37265625 7.26316406 -11.5734375 6.73335938 -10.75 6.1875 C-9.96109375 5.66542969 -9.1721875 5.14335938 -8.359375 4.60546875 C-6.81382041 3.55377514 -5.3004844 2.45271711 -3.828125 1.30078125 C-2 0 -2 0 0 0 Z " fill="#62B06D" transform="translate(166,79)"/>
<path d="M0 0 C1.65 0 3.3 0 5 0 C5 1.32 5 2.64 5 4 C6.65 4 8.3 4 10 4 C10.33 5.98 10.66 7.96 11 10 C9 10 9 10 6.625 7.8125 C4.27429889 5.29389166 2.10323374 2.72641411 0 0 Z " fill="#5FB96F" transform="translate(352,0)"/>
<path d="M0 0 C0.66 0.33 1.32 0.66 2 1 C-0.84756309 5.05230132 -3.34985578 7.2190937 -8 9 C-8.99 8.67 -9.98 8.34 -11 8 C-7.37 5.36 -3.74 2.72 0 0 Z " fill="#54AF63" transform="translate(120,110)"/>
<path d="M0 0 C1.32 0.66 2.64 1.32 4 2 C2.71372289 3.17260611 1.42080217 4.3379283 0.125 5.5 C-0.59429687 6.1496875 -1.31359375 6.799375 -2.0546875 7.46875 C-4 9 -4 9 -6 9 C-6 8.01 -6 7.02 -6 6 C-5.34 6 -4.68 6 -4 6 C-3.71125 5.38125 -3.4225 4.7625 -3.125 4.125 C-2 2 -2 2 0 0 Z " fill="#4CAF61" transform="translate(342,182)"/>
<path d="M0 0 C0 3 0 3 -2.125 5.625 C-5.25090158 8.20726652 -7.01781501 8.72217314 -11 9 C-7.67149253 5.40521193 -4.01028669 2.77635232 0 0 Z " fill="#66BB75" transform="translate(74,142)"/>
<path d="M0 0 C0 0.99 0 1.98 0 3 C-0.99 3.33 -1.98 3.66 -3 4 C-3 4.66 -3 5.32 -3 6 C-4.96147874 7.38938077 -6.96166576 8.7260411 -9 10 C-9.66 9.34 -10.32 8.68 -11 8 C-7.37 5.36 -3.74 2.72 0 0 Z " fill="#61B770" transform="translate(208,48)"/>
<path d="M0 0 C0.78375 0.185625 1.5675 0.37125 2.375 0.5625 C4.97089775 1.25962266 4.97089775 1.25962266 7 0 C7.12375 0.763125 7.2475 1.52625 7.375 2.3125 C7.88102792 5.20267136 7.88102792 5.20267136 10 8 C7 8 7 8 5.17578125 6.50390625 C4.56089844 5.86324219 3.94601562 5.22257813 3.3125 4.5625 C2.68988281 3.92441406 2.06726563 3.28632813 1.42578125 2.62890625 C0 1 0 1 0 0 Z " fill="#54B163" transform="translate(264,193)"/>
<path d="M0 0 C1.32 0.33 2.64 0.66 4 1 C4 1.66 4 2.32 4 3 C6.475 3.99 6.475 3.99 9 5 C9 6.32 9 7.64 9 9 C7.87105124 8.06725891 6.74699124 7.12859878 5.625 6.1875 C4.99851563 5.66542969 4.37203125 5.14335937 3.7265625 4.60546875 C2 3 2 3 0 0 Z " fill="#5CB369" transform="translate(213,141)"/>
<path d="M0 0 C1.9375 0.8125 1.9375 0.8125 3.9375 3.8125 C0.9675 3.3175 0.9675 3.3175 -2.0625 2.8125 C-3.0525 4.2975 -3.0525 4.2975 -4.0625 5.8125 C-6.6875 6 -6.6875 6 -9.0625 5.8125 C-3.16556407 -0.28777855 -3.16556407 -0.28777855 0 0 Z " fill="#6DBB80" transform="translate(218.0625,42.1875)"/>
<path d="M0 0 C-1.1196986 1.00593243 -2.2459412 2.0045849 -3.375 3 C-4.00148438 3.556875 -4.62796875 4.11375 -5.2734375 4.6875 C-7 6 -7 6 -9 6 C-9 4.68 -9 3.36 -9 2 C-3.375 -1.125 -3.375 -1.125 0 0 Z " fill="#5DB169" transform="translate(374,161)"/>
<path d="M0 0 C1.46484375 1.30208333 2.9296875 2.60416667 4.39453125 3.90625 C6.089448 5.28151241 6.089448 5.28151241 9 5 C9 5.66 9 6.32 9 7 C7.35 7.33 5.7 7.66 4 8 C3.67 7.01 3.34 6.02 3 5 C2.01 4.67 1.02 4.34 0 4 C0 2.68 0 1.36 0 0 Z " fill="#609B6A" transform="translate(287,256)"/>
<path d="M0 0 C1.98 0 3.96 0 6 0 C2.72291137 3.67033927 -0.71522208 5.69281189 -5 8 C-4.6875 6.0625 -4.6875 6.0625 -4 4 C-3.01 3.67 -2.02 3.34 -1 3 C-0.67 2.01 -0.34 1.02 0 0 Z " fill="#4CAE5D" transform="translate(90,216)"/>
<path d="M0 0 C2.96175123 0.61277612 4.38058783 1.25372522 7 3 C7.1875 5.625 7.1875 5.625 7 8 C1.125 3.375 1.125 3.375 0 0 Z " fill="#56B266" transform="translate(257,185)"/>
<path d="M0 0 C-1.3809002 3.33717549 -2.8201238 5.22301036 -6 7 C-8.1328125 6.57421875 -8.1328125 6.57421875 -10 6 C-8.71283353 4.99421411 -7.42011342 3.99553202 -6.125 3 C-5.40570313 2.443125 -4.68640625 1.88625 -3.9453125 1.3125 C-2 0 -2 0 0 0 Z " fill="#63B973" transform="translate(151,89)"/>
<path d="M0 0 C0.33 1.32 0.66 2.64 1 4 C-0.65 4.33 -2.3 4.66 -4 5 C-4 5.66 -4 6.32 -4 7 C-5.32 6.67 -6.64 6.34 -8 6 C-5.36 4.02 -2.72 2.04 0 0 Z " fill="#52AC62" transform="translate(180,68)"/>
<path d="M0 0 C1.98 0 3.96 0 6 0 C2.87378374 3.39417765 0.43458973 5.6062718 -4 7 C-3.34 5.68 -2.68 4.36 -2 3 C-1.01 3 -0.02 3 1 3 C0.67 2.01 0.34 1.02 0 0 Z " fill="#63B372" transform="translate(52,243)"/>
<path d="M0 0 C1.14926266 0.95421808 2.29430541 1.91352045 3.4375 2.875 C4.07558594 3.40867188 4.71367187 3.94234375 5.37109375 4.4921875 C7 6 7 6 8 8 C4.89347355 7.6641593 3.39585697 7.40950721 1.1875 5.125 C0 3 0 3 0 0 Z " fill="#639769" transform="translate(230,198)"/>
<path d="M0 0 C-4.625 4.875 -4.625 4.875 -8 6 C-7.625 3.5625 -7.625 3.5625 -7 1 C-4.53721199 -0.231394 -2.7204945 -0.07159196 0 0 Z " fill="#61B46D" transform="translate(324,202)"/>
<path d="M0 0 C0.66 0.33 1.32 0.66 2 1 C-2.455 4.465 -2.455 4.465 -7 8 C-7.66 7.67 -8.32 7.34 -9 7 C-8.67 6.34 -8.34 5.68 -8 5 C-7.34 5 -6.68 5 -6 5 C-6 4.34 -6 3.68 -6 3 C-4.03533587 1.93224776 -2.03144641 0.93446535 0 0 Z " fill="#4DA55C" transform="translate(159,170)"/>
<path d="M0 0 C1.65 0 3.3 0 5 0 C2.0094833 3.33557632 -0.93184627 5.15083921 -5 7 C-5.33 6.01 -5.66 5.02 -6 4 C-4.68 4 -3.36 4 -2 4 C-2 3.34 -2 2.68 -2 2 C-1.34 2 -0.68 2 0 2 C0 1.34 0 0.68 0 0 Z " fill="#60B36D" transform="translate(194,144)"/>
<path d="M0 0 C0.66 1.32 1.32 2.64 2 4 C0.68 4 -0.64 4 -2 4 C-2.33 4.99 -2.66 5.98 -3 7 C-4.32 6.67 -5.64 6.34 -7 6 C-4.69 4.02 -2.38 2.04 0 0 Z " fill="#57B164" transform="translate(386,186)"/>
<path d="M0 0 C3.37503669 1.1858237 5.64722731 2.27573689 8 5 C7.67 5.99 7.34 6.98 7 8 C5.83035398 6.8572081 4.66435444 5.71068285 3.5 4.5625 C2.8503125 3.92441406 2.200625 3.28632813 1.53125 2.62890625 C0 1 0 1 0 0 Z " fill="#54AD63" transform="translate(249,177)"/>
<path d="M0 0 C2.475 0.495 2.475 0.495 5 1 C5.103125 1.639375 5.20625 2.27875 5.3125 2.9375 C5.539375 3.618125 5.76625 4.29875 6 5 C6.99 5.33 7.98 5.66 9 6 C8.34 6.66 7.68 7.32 7 8 C5.83035398 6.8572081 4.66435444 5.71068285 3.5 4.5625 C2.8503125 3.92441406 2.200625 3.28632813 1.53125 2.62890625 C0 1 0 1 0 0 Z " fill="#61B56E" transform="translate(225,153)"/>
<path d="M0 0 C1.98 1.65 3.96 3.3 6 5 C4.02 5.99 4.02 5.99 2 7 C0.5393715 4.35261084 0 3.10551666 0 0 Z " fill="#569864" transform="translate(278,247)"/>
<path d="M0 0 C1.32 0 2.64 0 4 0 C4.66 2.64 5.32 5.28 6 8 C1.125 3.375 1.125 3.375 0 0 Z " fill="#62B370" transform="translate(31,241)"/>
<path d="M0 0 C1.12894876 0.93274109 2.25300876 1.87140122 3.375 2.8125 C4.00148438 3.33457031 4.62796875 3.85664063 5.2734375 4.39453125 C7 6 7 6 9 9 C6 9 6 9 4.39453125 7.5390625 C3.61142578 6.59160156 3.61142578 6.59160156 2.8125 5.625 C2.28269531 4.99851563 1.75289063 4.37203125 1.20703125 3.7265625 C0 2 0 2 0 0 Z " fill="#397B42" transform="translate(266,235)"/>
<path d="M0 0 C1.32 0 2.64 0 4 0 C4 0.66 4 1.32 4 2 C4.66 2 5.32 2 6 2 C6.33 3.65 6.66 5.3 7 7 C5.83040013 6.02433888 4.66438823 5.044375 3.5 4.0625 C2.8503125 3.51722656 2.200625 2.97195312 1.53125 2.41015625 C1.0259375 1.94480469 0.520625 1.47945312 0 1 C0 0.67 0 0.34 0 0 Z " fill="#59B068" transform="translate(233,161)"/>
<path d="M0 0 C-2.31 1.65 -4.62 3.3 -7 5 C-7.33 3.68 -7.66 2.36 -8 1 C-4.59449725 -1.06762667 -4.18836538 -1.04709135 0 0 Z " fill="#46A456" transform="translate(417,125)"/>
<path d="M0 0 C-1.55500981 3.81684226 -4.03595495 6.19195732 -7 9 C-6.53149863 4.78348764 -4.94559315 0 0 0 Z " fill="#51B064" transform="translate(332,101)"/>
<path d="M0 0 C0.66 1.32 1.32 2.64 2 4 C0.68 4 -0.64 4 -2 4 C-2.33 4.66 -2.66 5.32 -3 6 C-4.32 5.67 -5.64 5.34 -7 5 C-4.69 3.35 -2.38 1.7 0 0 Z " fill="#60B76E" transform="translate(140,96)"/>
<path d="M0 0 C0.33 0.99 0.66 1.98 1 3 C-0.32 3.33 -1.64 3.66 -3 4 C-3 4.66 -3 5.32 -3 6 C-4.32 5.67 -5.64 5.34 -7 5 C-4.69 3.35 -2.38 1.7 0 0 Z " fill="#54AE63" transform="translate(62,151)"/>
<path d="M0 0 C0.33 1.32 0.66 2.64 1 4 C-1.31 4.66 -3.62 5.32 -6 6 C-2.25 1.125 -2.25 1.125 0 0 Z " fill="#67BE77" transform="translate(346,88)"/>
<path d="M0 0 C0.99 0.33 1.98 0.66 3 1 C0.03 3.475 0.03 3.475 -3 6 C-3.66 5.67 -4.32 5.34 -5 5 C-3.35 3.35 -1.7 1.7 0 0 Z " fill="#54B463" transform="translate(77,227)"/>
<path d="M0 0 C0.66 0.33 1.32 0.66 2 1 C1.01 2.485 1.01 2.485 0 4 C-0.99 4 -1.98 4 -3 4 C-3 4.66 -3 5.32 -3 6 C-4.32 5.67 -5.64 5.34 -7 5 C-4.69 3.35 -2.38 1.7 0 0 Z " fill="#76C080" transform="translate(38,167)"/>
<path d="M0 0 C1.98 0.66 3.96 1.32 6 2 C6.33 3.65 6.66 5.3 7 7 C5.83040013 6.02433888 4.66438823 5.044375 3.5 4.0625 C2.8503125 3.51722656 2.200625 2.97195312 1.53125 2.41015625 C1.0259375 1.94480469 0.520625 1.47945313 0 1 C0 0.67 0 0.34 0 0 Z " fill="#67B872" transform="translate(473,121)"/>
<path d="M0 0 C0.99 0 1.98 0 3 0 C3 0.66 3 1.32 3 2 C4.32 2.66 5.64 3.32 7 4 C7 4.99 7 5.98 7 7 C5.83040013 6.02433888 4.66438823 5.044375 3.5 4.0625 C2.8503125 3.51722656 2.200625 2.97195312 1.53125 2.41015625 C1.0259375 1.94480469 0.520625 1.47945313 0 1 C0 0.67 0 0.34 0 0 Z " fill="#6BB979" transform="translate(461,109)"/>
<path d="M0 0 C1.32 0.33 2.64 0.66 4 1 C-1.75 6 -1.75 6 -4 6 C-4 5.01 -4 4.02 -4 3 C-3.01 3 -2.02 3 -1 3 C-0.67 2.01 -0.34 1.02 0 0 Z " fill="#5BB46B" transform="translate(433,108)"/>
<path d="M0 0 C1.2065625 0.0309375 1.2065625 0.0309375 2.4375 0.0625 C1.4475 0.3925 0.4575 0.7225 -0.5625 1.0625 C-1.29573796 3.07758358 -1.29573796 3.07758358 -1.5625 5.0625 C-2.5525 5.0625 -3.5425 5.0625 -4.5625 5.0625 C-3.43829114 0.08386076 -3.43829114 0.08386076 0 0 Z " fill="#4DB460" transform="translate(351.5625,84.9375)"/>
<path d="M0 0 C1.14926266 0.95421808 2.29430541 1.91352045 3.4375 2.875 C4.07558594 3.40867188 4.71367187 3.94234375 5.37109375 4.4921875 C7 6 7 6 8 8 C4.82461668 7.65978036 3.97723135 6.97533396 1.75 4.5625 C0 2 0 2 0 0 Z " fill="#31733A" transform="translate(248,217)"/>
<path d="M0 0 C1.98 1.65 3.96 3.3 6 5 C4.68 5.33 3.36 5.66 2 6 C0 3 0 3 0 0 Z " fill="#5A9162" transform="translate(218,186)"/>
<path d="M0 0 C2.31 1.98 4.62 3.96 7 6 C6.01 6.33 5.02 6.66 4 7 C0 2.25 0 2.25 0 0 Z " fill="#56AA61" transform="translate(291,117)"/>
<path d="M0 0 C1.98 0 3.96 0 6 0 C4.73223544 2.53552912 3.53176935 2.84919575 1 4 C0.01 4.495 0.01 4.495 -1 5 C-0.67 3.35 -0.34 1.7 0 0 Z " fill="#5BB36B" transform="translate(445,97)"/>
<path d="" fill="#FFFFFF" transform="translate(0,0)"/>
<path d="" fill="#FFFFFF" transform="translate(0,0)"/>
<path d="" fill="#FFFFFF" transform="translate(0,0)"/>
<path d="" fill="#FFFFFF" transform="translate(0,0)"/>
<path d="" fill="#FFFFFF" transform="translate(0,0)"/>
<path d="" fill="#FFFFFF" transform="translate(0,0)"/>
<path d="" fill="#FFFFFF" transform="translate(0,0)"/>
<path d="" fill="#FFFFFF" transform="translate(0,0)"/>
<path d="" fill="#FFFFFF" transform="translate(0,0)"/>
<path d="" fill="#FFFFFF" transform="translate(0,0)"/>
<path d="" fill="#FFFFFF" transform="translate(0,0)"/>
<path d="" fill="#FFFFFF" transform="translate(0,0)"/>
<path d="" fill="#FFFFFF" transform="translate(0,0)"/>
<path d="" fill="#FFFFFF" transform="translate(0,0)"/>
<path d="" fill="#FFFFFF" transform="translate(0,0)"/>
<path d="" fill="#FFFFFF" transform="translate(0,0)"/>
<path d="" fill="#FFFFFF" transform="translate(0,0)"/>
<path d="" fill="#FFFFFF" transform="translate(0,0)"/>
<path d="" fill="#FFFFFF" transform="translate(0,0)"/>
<path d="" fill="#FFFFFF" transform="translate(0,0)"/>
<path d="" fill="#FFFFFF" transform="translate(0,0)"/>
<path d="" fill="#FFFFFF" transform="translate(0,0)"/>
<path d="" fill="#FFFFFF" transform="translate(0,0)"/>
<path d="" fill="#FFFFFF" transform="translate(0,0)"/>
<path d="" fill="#FFFFFF" transform="translate(0,0)"/>
<path d="" fill="#FFFFFF" transform="translate(0,0)"/>
<path d="" fill="#FFFFFF" transform="translate(0,0)"/>
<path d="" fill="#FFFFFF" transform="translate(0,0)"/>
<path d="" fill="#FFFFFF" transform="translate(0,0)"/>
<path d="" fill="#FFFFFF" transform="translate(0,0)"/>
<path d="" fill="#FFFFFF" transform="translate(0,0)"/>
<path d="" fill="#FFFFFF" transform="translate(0,0)"/>
<path d="" fill="#FFFFFF" transform="translate(0,0)"/>
<path d="" fill="#FFFFFF" transform="translate(0,0)"/>
<path d="" fill="#FFFFFF" transform="translate(0,0)"/>
</svg>
